<svg xmlns="http://www.w3.org/2000/svg" width="31.395" height="31.395" viewBox="0 0 31.395 31.395">
	<g id="Icon_feather-image" data-name="Icon feather-image" transform="translate(-3.5 -3.5)" opacity="0.57">
		<path id="Path_5" data-name="Path 5" d="M7.72,4.5h22.54a3.22,3.22,0,0,1,3.22,3.22v22.54a3.22,3.22,0,0,1-3.22,3.22H7.72a3.22,3.22,0,0,1-3.22-3.22V7.72A3.22,3.22,0,0,1,7.72,4.5Z" fill="none" stroke="#727272" stroke-linecap="round" stroke-linejoin="round" stroke-width="2" />
		<path id="Path_6" data-name="Path 6" d="M15.33,12.915A2.415,2.415,0,1,1,12.915,10.5,2.415,2.415,0,0,1,15.33,12.915Z" transform="translate(0.44 0.44)" fill="none" stroke="#727272" stroke-linecap="round" stroke-linejoin="round" stroke-width="2" />
		<path id="Path_7" data-name="Path 7" d="M33.261,23.05,25.21,15,7.5,32.71" transform="translate(0.22 0.77)" fill="none" stroke="#727272" stroke-linecap="round" stroke-linejoin="round" stroke-width="2" />
	</g>
</svg>
