<svg id="Group_4" data-name="Group 4" xmlns="http://www.w3.org/2000/svg" width="42.622" height="29.835" viewBox="0 0 42.622 29.835">
	<path id="Path_12" data-name="Path 12" d="M16.655,8H12.393v6.393H6v4.262h6.393v6.393h4.262V18.655h6.393V14.393H16.655Z" transform="translate(2.524 -1.607)" stroke="#000" stroke-width="0" />
	<path id="Path_13" data-name="Path 13" d="M36.1,9.262A4.266,4.266,0,0,0,31.835,5H6.262A4.266,4.266,0,0,0,2,9.262V30.573a4.266,4.266,0,0,0,4.262,4.262H31.835A4.266,4.266,0,0,0,36.1,30.573v-7.1l8.524,7.1V9.262l-8.524,7.1Zm-4.26,21.311H6.262V9.262H31.835V19.918Z" transform="translate(-2 -5)" stroke="#000" stroke-width="0" />
</svg>
