<svg xmlns="http://www.w3.org/2000/svg" width="36.457" height="37.019" viewBox="0 0 36.457 37.019">
	<path id="Icon_ionic-ios-arrow-up" data-name="Icon ionic-ios-arrow-up" d="M18.514,6.38l14,14.007a2.646,2.646,0,0,0,3.736-3.747L20.388.771A2.64,2.64,0,0,0,16.74.693L.771,16.629a2.646,2.646,0,1,0,3.736,3.747Z" transform="translate(36.457) rotate(90)" fill="#00c4cc" />
	<path id="Icon_ionic-ios-arrow-up-2" data-name="Icon ionic-ios-arrow-up" d="M18.514,6.38l14,14.007a2.646,2.646,0,0,0,3.736-3.747L20.388.771A2.64,2.64,0,0,0,16.74.693L.771,16.629a2.646,2.646,0,1,0,3.736,3.747Z" transform="translate(21.164) rotate(90)" fill="#00c4cc" />
</svg>
