<svg xmlns="http://www.w3.org/2000/svg" width="34.097" height="34.097" viewBox="0 0 34.097 34.097">
	<path fill="#00c4cc" id="Path_14" data-name="Path 14" d="M0,4.262A4.262,4.262,0,0,1,4.262,0H21.311a4.262,4.262,0,0,1,4.262,4.262V8.524h4.262A4.262,4.262,0,0,1,34.1,12.786V29.835A4.262,4.262,0,0,1,29.835,34.1H12.786a4.262,4.262,0,0,1-4.262-4.262V25.573H4.262A4.262,4.262,0,0,1,0,21.311ZM4.262,2.131A2.131,2.131,0,0,0,2.131,4.262V21.311a2.131,2.131,0,0,0,2.131,2.131H21.311a2.131,2.131,0,0,0,2.131-2.131V4.262a2.131,2.131,0,0,0-2.131-2.131Z" stroke="#00c4cc" stroke-width="0" />
</svg>
