<svg xmlns="http://www.w3.org/2000/svg" width="13.415" height="19.513" viewBox="0 0 13.415 19.513">
	<path id="Icon_awesome-microphone" data-name="Icon awesome-microphone" d="M6.708,13.415a3.659,3.659,0,0,0,3.659-3.659v-6.1a3.659,3.659,0,0,0-7.317,0v6.1A3.659,3.659,0,0,0,6.708,13.415Zm6.1-6.1H12.2a.61.61,0,0,0-.61.61V9.757A4.884,4.884,0,0,1,6.22,14.611,5.026,5.026,0,0,1,1.829,9.539V7.927a.61.61,0,0,0-.61-.61H.61a.61.61,0,0,0-.61.61V9.458a6.918,6.918,0,0,0,5.793,6.925v1.3H3.659a.61.61,0,0,0-.61.61v.61a.61.61,0,0,0,.61.61h6.1a.61.61,0,0,0,.61-.61v-.61a.61.61,0,0,0-.61-.61H7.622V16.4a6.714,6.714,0,0,0,5.793-6.64V7.927A.61.61,0,0,0,12.806,7.317Z" fill="#fff" />
</svg>
