<svg xmlns="http://www.w3.org/2000/svg" width="21.857" height="17.189" viewBox="0 0 21.857 17.189">
	<g id="Group_3" data-name="Group 3" transform="translate(982.649 -675.474)">
		<path id="Path_3" data-name="Path 3" d="M-971.682,675.476q4.119,0,8.238,0a2.379,2.379,0,0,1,2.65,2.663q0,4.774,0,9.549a2.379,2.379,0,0,1-2.624,2.63c-.791,0-1.581.013-2.371,0-.332-.007-.468.071-.484.444a1.743,1.743,0,0,1-2.018,1.9q-3.433.009-6.865,0a1.738,1.738,0,0,1-2-1.915c-.015-.39-.177-.434-.493-.429-.832.014-1.664.012-2.5,0a2.357,2.357,0,0,1-2.5-2.511q-.01-4.9,0-9.8a2.355,2.355,0,0,1,2.537-2.529C-977.3,675.471-974.491,675.476-971.682,675.476Zm-.046,13.263q4.15,0,8.3,0c.852,0,1.08-.222,1.081-1.07q.008-4.774,0-9.549c0-.843-.231-1.066-1.086-1.066q-8.269,0-16.538,0c-.9,0-1.1.2-1.1,1.1q-.005,4.743,0,9.486c0,.9.2,1.1,1.107,1.1Q-975.848,688.742-971.728,688.739Zm-.06,2.347c1.163,0,2.325-.007,3.488,0,.318,0,.506-.052.5-.437,0-.421-.284-.331-.513-.331-2.284,0-4.567,0-6.85,0-.268,0-.489-.006-.474.378.013.354.2.4.484.394C-974.03,691.08-972.909,691.085-971.788,691.085Z" fill="#727272" />
		<path id="Path_4" data-name="Path 4" d="M-915.6,709.413c0,.763-.024,1.527,0,2.29.065,1.751-.217,1.857-.779,1.853-.686-.005-.865-.206-.811-1.885.024-.746,0-1.493,0-2.319a3.633,3.633,0,0,0-.824.711.753.753,0,0,1-1.116.043.741.741,0,0,1,.03-1.155c.7-.711,1.4-1.419,2.116-2.117a.752.752,0,0,1,1.16-.007q1.094,1.066,2.159,2.163a.729.729,0,0,1,.007,1.112.737.737,0,0,1-1.113-.034c-.238-.229-.45-.486-.673-.73Z" transform="translate(-55.329 -27.182)" fill="#727272" />
	</g>
</svg>
