<svg xmlns="http://www.w3.org/2000/svg" width="23.105" height="13.203" viewBox="0 0 23.105 13.203">
	<g id="Icon_ionic-ios-videocam" data-name="Icon ionic-ios-videocam" transform="translate(-2.25 -9)">
		<path id="Path_1" data-name="Path 1" d="M29.813,10.8a.881.881,0,0,0-.48.139l-4.461,2.816a.441.441,0,0,0-.206.371v3.92a.441.441,0,0,0,.206.371l4.461,2.816a.927.927,0,0,0,.48.139h1.073a.439.439,0,0,0,.444-.438v-9.7a.442.442,0,0,0-.444-.438Z" transform="translate(-5.974 -0.48)" fill="#727272" />
		<path id="Path_2" data-name="Path 2" d="M14.7,22.2h-9.8A2.664,2.664,0,0,1,2.25,19.552v-7.9A2.66,2.66,0,0,1,4.9,9h9.8a2.66,2.66,0,0,1,2.651,2.651v7.9A2.653,2.653,0,0,1,14.7,22.2Z" fill="#727272" />
	</g>
</svg>
