<svg xmlns="http://www.w3.org/2000/svg" width="42.359" height="42.359" viewBox="0 0 42.359 42.359">
	<path id="Path_4" data-name="Path 4" d="M32.835,12.524H37.1a4.262,4.262,0,0,1,4.262,4.262V29.573A4.262,4.262,0,0,1,37.1,33.835H32.835v8.524l-8.524-8.524H15.786a4.249,4.249,0,0,1-3.013-1.249m0,0,7.276-7.276h8.524a4.262,4.262,0,0,0,4.262-4.262V8.262A4.262,4.262,0,0,0,28.573,4H7.262A4.262,4.262,0,0,0,3,8.262V21.049a4.262,4.262,0,0,0,4.262,4.262h4.262v8.524Z" transform="translate(-1 -2)" fill="none" stroke="#000" stroke-linecap="round" stroke-linejoin="round" stroke-width="4" />
</svg>
