<svg xmlns="http://www.w3.org/2000/svg" width="34.938" height="35.882" viewBox="0 0 34.938 35.882">
	<path fill="#00C4CC" id="Icon_material-camera" data-name="Icon material-camera" d="M15.4,17.249,23.4,3.4A17.276,17.276,0,0,0,19.763,3,16.737,16.737,0,0,0,9.169,6.772L15.3,17.416Zm20.351-2.514A16.8,16.8,0,0,0,25.7,4.106L19.562,14.734H35.755Zm.436,1.676H23.636l.486.838L32.1,31.078a16.613,16.613,0,0,0,4.425-11.315A16.971,16.971,0,0,0,36.191,16.411ZM13.963,19.763,7.425,8.448A16.692,16.692,0,0,0,3,19.763a16.971,16.971,0,0,0,.335,3.353H15.891ZM3.771,24.792A16.8,16.8,0,0,0,13.829,35.42l6.135-10.628H3.771Zm18.892,0L16.126,36.124a17.276,17.276,0,0,0,3.638.4,16.737,16.737,0,0,0,10.594-3.772L24.222,22.11Z" transform="translate(-1.672 -1.51)" />
	<line id="Line_1" data-name="Line 1" x2="29.282" y2="30.226" transform="translate(2.828 2.828)" fill="none" stroke="#00C4CC" stroke-linecap="round" stroke-width="4" />
</svg>
