<svg id="Group_39" data-name="Group 39" xmlns="http://www.w3.org/2000/svg" width="32.477" height="27.228" viewBox="0 0 32.477 27.228">
	<path id="Path_15" data-name="Path 15" d="M4.9,2.5A1.7,1.7,0,1,0,2.5,4.905L26.323,28.73a1.7,1.7,0,1,0,2.406-2.406l-2.507-2.507a17.041,17.041,0,0,0,5.629-8.2A17.028,17.028,0,0,0,7.936,5.529L4.907,2.5Zm7.251,7.25,2.576,2.578A3.409,3.409,0,0,1,18.9,16.5l2.576,2.576A6.807,6.807,0,0,0,12.156,9.75Z" transform="translate(0.624 -2)" fill="#fff" fill-rule="evenodd" />
	<path id="Path_16" data-name="Path 16" d="M20.872,23.8l-4.6-4.6A6.807,6.807,0,0,1,9.9,12.829L3.652,6.578A16.984,16.984,0,0,0,.458,12.4,17.045,17.045,0,0,0,20.872,23.8Z" transform="translate(-0.458 1.213)" fill="#fff" />
</svg>
