<svg xmlns="http://www.w3.org/2000/svg" width="32.785" height="17.625" viewBox="0 0 32.785 17.625">
	<path id="Path_31" data-name="Path 31" d="M258.821,21.885q-6.486,0-12.973,0c-.222,0-.272-.029-.27-.138.009-.684.007-1.368,0-2.051,0-.086.048-.109.218-.109q5.382,0,10.764,0H267.82c1.35,0,2.7,0,4.05,0,.18,0,.21.029.209.111-.005.687-.006,1.375,0,2.062,0,.1-.045.125-.245.125q-6.172,0-12.345,0Z" transform="translate(-239.298 -18.926)" fill="#00c4cc" />
	<path id="Path_35" data-name="Path 35" d="M258.821,21.885q-6.486,0-12.973,0c-.222,0-.272-.029-.27-.138.009-.684.007-1.368,0-2.051,0-.086.048-.109.218-.109q5.382,0,10.764,0H267.82c1.35,0,2.7,0,4.05,0,.18,0,.21.029.209.111-.005.687-.006,1.375,0,2.062,0,.1-.045.125-.245.125q-6.172,0-12.345,0Z" transform="translate(-239.298 -11.926)" fill="#00c4cc" />
	<path id="Path_37" data-name="Path 37" d="M258.821,21.885q-6.486,0-12.973,0c-.222,0-.272-.029-.27-.138.009-.684.007-1.368,0-2.051,0-.086.048-.109.218-.109q5.382,0,10.764,0H267.82c1.35,0,2.7,0,4.05,0,.18,0,.21.029.209.111-.005.687-.006,1.375,0,2.062,0,.1-.045.125-.245.125q-6.172,0-12.345,0Z" transform="translate(-239.298 -4.926)" fill="#00c4cc" />
	<path id="Path_34" data-name="Path 34" d="M220,16.32a1.814,1.814,0,1,1-1.787-1.821A1.811,1.811,0,0,1,220,16.32Z" transform="translate(-216.369 -14.499)" fill="#00c4cc" />
	<path id="Path_36" data-name="Path 36" d="M220,16.32a1.814,1.814,0,1,1-1.787-1.821A1.811,1.811,0,0,1,220,16.32Z" transform="translate(-216.369 -7.499)" fill="#00c4cc" />
	<path id="Path_38" data-name="Path 38" d="M220,16.32a1.814,1.814,0,1,1-1.787-1.821A1.811,1.811,0,0,1,220,16.32Z" transform="translate(-216.369 -0.499)" fill="#00c4cc" />
</svg>
