<svg xmlns="http://www.w3.org/2000/svg" width="145" height="52.778" viewBox="0 0 145 52.778">
	<g id="Group_7" data-name="Group 7" transform="translate(-139.999 -33.999)">
		<path id="Union_1" data-name="Union 1" d="M7.728,45.048a26.389,26.389,0,1,1,37.319,0,26.389,26.389,0,0,1-37.319,0ZM2.305,26.388A24.083,24.083,0,1,0,26.388,2.305,24.083,24.083,0,0,0,2.305,26.388ZM25,45.1c-.824-.021-1.3-.456-1.317-1.179a1.2,1.2,0,0,1,1.3-1.292c1.254-.02,2.508-.005,3.761-.005h3.681c.27,0,.593-.021.672.29.09.361-.228.493-.5.613a17.642,17.642,0,0,1-7.17,1.577Q25.218,45.111,25,45.1Zm9.407-3.663a1.2,1.2,0,0,0-1.362-.966c-2.862.009-5.724,0-8.585,0H20.049c-1.083,0-1.659-.475-1.672-1.377-.015-1.008.558-1.565,1.688-1.57,2.194-.014,4.387,0,6.58,0v-.011h6.419c.88,0,1.346-.354,1.35-1,0-.683-.495-1.084-1.388-1.086q-4.574-.008-9.148,0a1.419,1.419,0,0,1-1.435-.818,1.4,1.4,0,0,1,.183-1.571,1.549,1.549,0,0,1,1.367-.508q4.293.012,8.585,0c.214,0,.429.008.642-.007.765-.05,1.256-.5,1.191-1.12a1.065,1.065,0,0,0-1.217-1c-.58,0-1.156,0-1.734,0-1,0-2,0-3-.013a1.439,1.439,0,0,1-1.473-1.122,1.4,1.4,0,0,1,.634-1.59,1.416,1.416,0,0,1,.918-.209q2.205.01,4.413,0c.915-.005,1.493-.453,1.469-1.115-.023-.628-.58-1.055-1.449-1.063-.706-.006-1.412,0-2.117,0-.738,0-1.477,0-2.215,0-1.086-.01-1.745-.586-1.725-1.47a1.54,1.54,0,0,1,1.7-1.438c.9-.015,1.8-.013,2.7-.011h1.789c.776,0,1.28-.4,1.314-1,.035-.623-.478-1.086-1.3-1.091-2.995-.015-5.991-.008-8.984-.008a1.681,1.681,0,0,1-1.57-.611,1.391,1.391,0,0,1-.116-1.517,1.5,1.5,0,0,1,1.442-.824c2.969.01,5.938,0,8.906,0a3.046,3.046,0,0,0,.719-.024,1.026,1.026,0,0,0,.9-.985.992.992,0,0,0-.893-1.061,5.354,5.354,0,0,0-.915-.05h-.125q-6.139,0-12.277,0c-1.262,0-1.843-.464-1.836-1.476.007-.981.62-1.483,1.863-1.484q6.3-.01,12.6,0c1.315,0,1.5-.143,1.6-1.418.039-.531.248-.512.6-.3.228.139.447.29.671.438.392.257.754.541.634,1.086-.116.511-.53.591-.973.679a1.043,1.043,0,0,0,.163,2.061c1.1.017,2.193.016,3.29.023,1.028.006,1.671.541,1.7,1.413a1.511,1.511,0,0,1-1.668,1.549c-1.045.024-2.087.023-3.13.007a1.028,1.028,0,0,0-1.2,1,1.093,1.093,0,0,0,1.217,1.087q1.56.008,3.12,0h2.5a1.532,1.532,0,0,1,1.717,1.494c-.012.829-.686,1.4-1.709,1.412-1.154.008-2.307.006-3.461,0H36.225a4.774,4.774,0,0,0-.638.019,1.1,1.1,0,0,0-1.076,1.089c-.028.576.483,1,1.2,1.006.989.005,1.979,0,2.969,0,1.123,0,2.247,0,3.37.008.933.007,1.514.406,1.672,1.086a1.417,1.417,0,0,1-1.5,1.837c-1.926.007-3.852,0-5.778,0-.214,0-.429-.009-.641.01-.827.071-1.327.508-1.3,1.124a1.25,1.25,0,0,0,1.37,1.064c.883.008,1.766,0,2.648,0,.99,0,1.979-.006,2.969.006a1.385,1.385,0,0,1,1.556,1.367A1.473,1.473,0,0,1,41.521,32.9c-1.127.023-2.255.019-3.381.015H36.788c-.294,0-.589-.01-.883,0-.946.024-1.4.383-1.4,1.083.009.672.49,1.03,1.432,1.038.406,0,.817,0,1.226,0,.554,0,1.107-.008,1.662.005,1.1.026,1.711.594,1.681,1.507-.026.869-.658,1.395-1.7,1.4-.449,0-.9,0-1.346,0-.541,0-1.082,0-1.623,0-.742.008-1.345.433-1.34,1a1.068,1.068,0,0,0,1.083,1.142.754.754,0,0,1,.737.628.833.833,0,0,1-.375.9c-.132.091-.263.184-.4.272-.4.267-.625.419-.771.419-.19,0-.242-.263-.373-.868ZM19.892,30.415a1.407,1.407,0,0,1-1.523-1.482,1.355,1.355,0,0,1,1.519-1.468c1.31-.02,2.621-.016,3.931,0A1.47,1.47,0,1,1,23.9,30.4c-.7.04-1.391.008-2.087.008v.009c-.392,0-.784.006-1.177.006C20.39,30.426,20.14,30.423,19.892,30.415Zm3.8-5.108a1.479,1.479,0,0,1-1.43-1.507,1.5,1.5,0,0,1,1.607-1.419,1.516,1.516,0,0,1,1.391,1.557,1.5,1.5,0,0,1-1.5,1.373Zm-7.053-.013v-.012c-.856,0-1.712.008-2.567,0a1.434,1.434,0,0,1-1.48-1.367,1.4,1.4,0,0,1,1.265-1.5c.618-.058,1.242-.054,1.865-.051h.618c.99,0,1.98-.018,2.968.011a1.488,1.488,0,0,1,1.565,1.484,1.463,1.463,0,0,1-1.591,1.432c-.344.007-.689.009-1.032.009C17.709,25.3,17.17,25.295,16.635,25.295ZM32.468,10.126c-.054,0-.108-.005-.158,0-1.2.008-2.4,0-3.606,0v0c-1.2,0-2.4.008-3.606,0-.869-.008-1.391-.464-1.4-1.2-.017-.8.469-1.232,1.4-1.257a17.3,17.3,0,0,1,7.376,1.5c.285.123.689.213.624.618-.048.294-.254.339-.475.339C32.57,10.13,32.516,10.128,32.468,10.126Z" transform="translate(140 34)" />
		<text id="Duokast" transform="translate(204.999 67.999)" font-size="22" font-family="SegoeUI, Segoe UI">
			<tspan x="0" y="0">
				Duokast
			</tspan>
		</text>
	</g>
</svg>
