<svg id="microphone-black-shape" xmlns="http://www.w3.org/2000/svg" width="25.979" height="37.532" viewBox="0 0 25.979 37.532">
	<g id="Group_13" data-name="Group 13" transform="translate(0 0)">
		<path id="Path_9" data-name="Path 9" d="M153.4,25.979a7.234,7.234,0,0,0,7.216-7.216V7.217a6.948,6.948,0,0,0-2.12-5.1,7.186,7.186,0,0,0-10.193,0,6.949,6.949,0,0,0-2.12,5.1V18.763a7.234,7.234,0,0,0,7.217,7.216Z" transform="translate(-140.406 0)" fill="#fff" />
		<path id="Path_10" data-name="Path 10" d="M98.637,183.152a1.443,1.443,0,0,0-2.457,1.014v2.893a10.1,10.1,0,0,1-20.207,0v-2.886a1.443,1.443,0,1,0-2.886,0v2.886a12.988,12.988,0,0,0,11.546,12.9v2.977H78.861a1.444,1.444,0,1,0,0,2.888H93.292a1.444,1.444,0,1,0,0-2.888H87.52v-2.977a12.99,12.99,0,0,0,11.547-12.9v-2.886a1.387,1.387,0,0,0-.429-1.02Z" transform="translate(-73.087 -168.29)" fill="#fff" />
	</g>
</svg>
