<svg xmlns="http://www.w3.org/2000/svg" xmlns:xlink="http://www.w3.org/1999/xlink" width="49.465" height="49.465" viewBox="0 0 49.465 49.465">
	<defs>
		<filter id="Icon_metro-cross" x="0" y="0" width="49.465" height="49.465" filterUnits="userSpaceOnUse">
			<feOffset dy="3" input="SourceAlpha" />
			<feGaussianBlur stdDeviation="3" result="blur" />
			<feFlood flood-opacity="0.161" />
			<feComposite operator="in" in2="blur" />
			<feComposite in="SourceGraphic" />
		</filter>
	</defs>
	<g transform="matrix(1, 0, 0, 1, 0, 0)" filter="url(#Icon_metro-cross)">
		<path id="Icon_metro-cross-2" data-name="Icon metro-cross" d="M33.749,27.207h0L24.2,17.661l9.545-9.546h0a.986.986,0,0,0,0-1.39L29.24,2.215a.986.986,0,0,0-1.39,0h0L18.3,11.761,8.758,2.215h0a.986.986,0,0,0-1.39,0L2.858,6.725a.986.986,0,0,0,0,1.39h0L12.4,17.661,2.858,27.207h0a.985.985,0,0,0,0,1.39l4.509,4.509a.986.986,0,0,0,1.39,0h0L18.3,23.561l9.546,9.546h0a.985.985,0,0,0,1.39,0L33.749,28.6a.985.985,0,0,0,0-1.39Z" transform="translate(6.43 4.07)" fill="#00c4cc" />
	</g>
</svg>
