<svg xmlns="http://www.w3.org/2000/svg" width="26.293" height="42.102" viewBox="0 0 26.293 42.102">
	<line id="Line_15" data-name="Line 15" y2="16.181" transform="translate(13.201)" fill="none" stroke="#01d8d1" stroke-width="1" stroke-dasharray="2" />
	<path id="Icon_awesome-plus-circle" data-name="Icon awesome-plus-circle" d="M13.709.563A13.146,13.146,0,1,0,26.855,13.709,13.144,13.144,0,0,0,13.709.563Zm7.633,14.631a.638.638,0,0,1-.636.636H15.829v4.877a.638.638,0,0,1-.636.636H12.225a.638.638,0,0,1-.636-.636V15.829H6.712a.638.638,0,0,1-.636-.636V12.225a.638.638,0,0,1,.636-.636h4.877V6.712a.638.638,0,0,1,.636-.636h2.969a.638.638,0,0,1,.636.636v4.877h4.877a.638.638,0,0,1,.636.636Z" transform="translate(-0.563 15.247)" fill="#01d8d1" />
</svg>
