<svg id="Group_41" data-name="Group 41" xmlns="http://www.w3.org/2000/svg" width="33.382" height="33.381" viewBox="0 0 33.382 33.381">
	<path id="Path_14" data-name="Path 14" d="M33.378,304H0v1.788a1.788,1.788,0,0,0,1.788,1.788H31.594a1.788,1.788,0,0,0,1.788-1.788Zm-2.385,2.385H29.805v-1.192H31Zm0,0" transform="translate(0 -281.348)" fill="#fff" />
	<path id="Path_15" data-name="Path 15" d="M128,432.6a.6.6,0,0,0,.6.6H141.71a.6.6,0,1,0,0-1.192H128.6a.6.6,0,0,0-.6.6Zm0,0" transform="translate(-118.462 -399.81)" fill="#fff" />
	<path id="Path_16" data-name="Path 16" d="M151.153,104H144v7.153h2.385V106.98a.6.6,0,0,1,.6-.6h4.173Zm0,0" transform="translate(-133.27 -96.25)" fill="#fff" />
	<path id="Path_17" data-name="Path 17" d="M169.511,368l-.448,3.577h8.187L176.8,368Zm0,0" transform="translate(-156.465 -340.578)" fill="#fff" />
	<path id="Path_18" data-name="Path 18" d="M192,152h7.153v7.153H192Zm0,0" transform="translate(-177.694 -140.674)" fill="#fff" />
	<path id="Path_19" data-name="Path 19" d="M33.378,64H0V80.691H33.378ZM22.646,78.306a.6.6,0,0,1-.6.6H13.711a.6.6,0,0,1-.6-.6v-2.98H10.134a.6.6,0,0,1-.6-.594V66.385a.6.6,0,0,1,.6-.6h8.346a.6.6,0,0,1,.6.6v2.981h2.98a.6.6,0,0,1,.6.6Zm0,0" transform="translate(0 -59.232)" fill="#fff" />
	<path id="Path_20" data-name="Path 20" d="M33.378,1.788A1.788,1.788,0,0,0,31.594,0H1.788A1.788,1.788,0,0,0,0,1.788V3.577H33.378Zm-29.8.6H2.385V1.192H3.577Zm2.385,0H4.768V1.192H5.961Zm2.385,0H7.153V1.192H8.346Zm0,0" transform="translate(0)" fill="#fff" />
</svg>
