<svg xmlns="http://www.w3.org/2000/svg" width="21.797" height="21.797" viewBox="0 0 21.797 21.797">
	<g id="Icon_feather-send" data-name="Icon feather-send" transform="translate(-1.5 -1.5)">
		<path id="Path_8" data-name="Path 8" d="M15.991,14.38a.991.991,0,0,1-.7-1.691l10.9-10.9a.991.991,0,0,1,1.4,1.4l-10.9,10.9A.988.988,0,0,1,15.991,14.38Z" transform="translate(-4.583 0)" fill="#fff" />
		<path id="Path_9" data-name="Path 9" d="M22.306,1.5a.991.991,0,0,1,.935,1.318L16.306,22.634a.991.991,0,0,1-1.841.075L10.657,14.14,2.088,10.332a.991.991,0,0,1,.075-1.841L21.979,1.556A.99.99,0,0,1,22.306,1.5ZM15.261,19.62l5.43-15.515L5.177,9.536l6.633,2.948a.991.991,0,0,1,.5.5Z" fill="#fff" />
	</g>
</svg>
