<svg id="settings_1_" data-name="settings (1)" xmlns="http://www.w3.org/2000/svg" width="32.325" height="33.194" viewBox="0 0 32.325 33.194">
	<g id="Group_14" data-name="Group 14" transform="translate(0 0)">
		<path id="Path_21" data-name="Path 21" d="M38.471,20.232l-3.052-2.386a12.012,12.012,0,0,0,.072-1.252,11.646,11.646,0,0,0-.072-1.252l3.052-2.387a1.5,1.5,0,0,0,.361-1.906L35.663,5.559a1.474,1.474,0,0,0-1.836-.66l-3.6,1.445a12.342,12.342,0,0,0-2.163-1.254l-.547-3.818A1.473,1.473,0,0,0,26.053,0H19.692a1.465,1.465,0,0,0-1.463,1.263L17.679,5.1A12.724,12.724,0,0,0,15.522,6.35L11.913,4.9a1.5,1.5,0,0,0-1.822.648l-3.181,5.5a1.487,1.487,0,0,0,.36,1.916l3.052,2.386a10.946,10.946,0,0,0,0,2.5L7.27,20.236a1.5,1.5,0,0,0-.36,1.905l3.172,5.489a1.473,1.473,0,0,0,1.836.66l3.6-1.445A12.451,12.451,0,0,0,17.679,28.1l.547,3.817a1.467,1.467,0,0,0,1.466,1.275h6.361a1.466,1.466,0,0,0,1.464-1.263l.547-3.829a12.782,12.782,0,0,0,2.158-1.256L33.832,28.3a1.486,1.486,0,0,0,.542.105,1.46,1.46,0,0,0,1.279-.749l3.186-5.518A1.492,1.492,0,0,0,38.471,20.232Zm-15.6,1.894A5.532,5.532,0,1,1,28.4,16.595a5.532,5.532,0,0,1-5.532,5.532Z" transform="translate(-6.707 0)" fill="#fff" />
	</g>
</svg>
