<svg xmlns="http://www.w3.org/2000/svg" width="43.165" height="26.978" viewBox="0 0 43.165 26.978">
	<path fill="#00c4cc" id="Path_8" data-name="Path 8" d="M0,8.4A5.4,5.4,0,0,1,5.4,3H25.629a5.4,5.4,0,0,1,5.35,4.689l8.39-3.729a2.7,2.7,0,0,1,3.8,2.463V26.555a2.7,2.7,0,0,1-3.793,2.463l-8.393-3.728a5.4,5.4,0,0,1-5.35,4.689H5.4a5.4,5.4,0,0,1-5.4-5.4ZM31.025,22.357l9.442,4.2V6.424l-9.442,4.2V22.357ZM5.4,5.7A2.7,2.7,0,0,0,2.7,8.4V24.583a2.7,2.7,0,0,0,2.7,2.7H25.629a2.7,2.7,0,0,0,2.7-2.7V8.4a2.7,2.7,0,0,0-2.7-2.7Z" transform="translate(0 -3)" stroke="#00C4CC" stroke-width="0" fill-rule="evenodd" />
</svg>
